<?xml version="1.0" encoding="utf-8"?>
<!-- Generator: Adobe Illustrator 17.0.0, SVG Export Plug-In . SVG Version: 6.00 Build 0)  -->
<!DOCTYPE svg PUBLIC "-//W3C//DTD SVG 1.1//EN" "http://www.w3.org/Graphics/SVG/1.1/DTD/svg11.dtd">
<svg version="1.1" id="Layer_1" xmlns="http://www.w3.org/2000/svg" xmlns:xlink="http://www.w3.org/1999/xlink" x="0px" y="0px"
	 width="32px" height="32px" viewBox="0 0 32 32" enable-background="new 0 0 32 32" xml:space="preserve">
<g>
	<rect x="20" y="14.799" fill="#AAAAAA" width="1.662" height="1.724"/>
</g>
<g>
	<rect x="17.572" y="14.799" fill="#AAAAAA" width="1.66" height="1.724"/>
</g>
<g>
	<rect x="15.141" y="14.799" fill="#AAAAAA" width="1.659" height="1.724"/>
</g>
<g>
	<rect x="20" y="17.203" fill="#AAAAAA" width="1.662" height="1.725"/>
</g>
<g>
	<rect x="17.572" y="17.203" fill="#AAAAAA" width="1.66" height="1.725"/>
</g>
<g>
	<rect x="15.141" y="17.203" fill="#AAAAAA" width="1.659" height="1.725"/>
</g>
<g>
	<rect x="12.711" y="17.203" fill="#AAAAAA" width="1.661" height="1.725"/>
</g>
<g>
	<rect x="10.282" y="17.203" fill="#AAAAAA" width="1.661" height="1.725"/>
</g>
<g>
	<rect x="20" y="19.606" fill="#AAAAAA" width="1.662" height="1.724"/>
</g>
<g>
	<rect x="17.572" y="19.606" fill="#AAAAAA" width="1.66" height="1.724"/>
</g>
<g>
	<rect x="15.141" y="19.606" fill="#AAAAAA" width="1.659" height="1.724"/>
</g>
<g>
	<rect x="12.711" y="19.606" fill="#AAAAAA" width="1.661" height="1.724"/>
</g>
<g>
	<rect x="10.282" y="19.606" fill="#AAAAAA" width="1.661" height="1.724"/>
</g>
<g>
	<rect x="17.572" y="22.01" fill="#AAAAAA" width="1.66" height="1.723"/>
</g>
<g>
	<rect x="15.141" y="22.01" fill="#AAAAAA" width="1.659" height="1.723"/>
</g>
<g>
	<rect x="12.711" y="22.01" fill="#AAAAAA" width="1.661" height="1.723"/>
</g>
<g>
	<rect x="10.282" y="22.01" fill="#AAAAAA" width="1.661" height="1.723"/>
</g>
<path fill="#AAAAAA" d="M22.429,7.507v2.92h-3.051v-2.92h-6.723v2.92H9.611v-2.92H6.164v19.672h19.673V7.507H22.429z M24.187,25.53
	H7.812V12.753h16.373V25.53H24.187z"/>
<rect x="20.082" y="4.821" fill="#AAAAAA" width="1.645" height="4.884"/>
<rect x="10.281" y="4.821" fill="#AAAAAA" width="1.645" height="4.884"/>
<g>
</g>
<g>
</g>
<g>
</g>
<g>
</g>
<g>
</g>
<g>
</g>
<g>
</g>
<g>
</g>
<g>
</g>
<g>
</g>
<g>
</g>
<g>
</g>
<g>
</g>
<g>
</g>
<g>
</g>
</svg>
