<?xml version="1.0" encoding="utf-8"?>
<!-- Generator: Adobe Illustrator 17.0.0, SVG Export Plug-In . SVG Version: 6.00 Build 0)  -->
<!DOCTYPE svg PUBLIC "-//W3C//DTD SVG 1.1//EN" "http://www.w3.org/Graphics/SVG/1.1/DTD/svg11.dtd">
<svg version="1.1" id="Layer_1" xmlns="http://www.w3.org/2000/svg" xmlns:xlink="http://www.w3.org/1999/xlink" x="0px" y="0px"
	 width="32px" height="32px" viewBox="0 0 32 32" enable-background="new 0 0 32 32" xml:space="preserve">
<g id="Your_Icon">
	<path fill="#AAAAAA" d="M16.017,19.326c0.409,0,0.806-0.044,1.197-0.11v6.677l-1.18,1.642l-1.249-1.642V19.21
		C15.507,19.337,15.747,19.326,16.017,19.326z M9.916,14.816c-0.537-0.996-0.854-2.131-0.854-3.344c0-3.87,3.106-7.008,6.939-7.008
		c3.832,0,6.938,3.137,6.938,7.008c0,1.245-0.326,2.411-0.892,3.425c-0.041,0.067-0.077,0.066-0.122,0.132
		c-0.013,0.023-0.033,0.115-0.046,0.138c-1.284,1.889-3.435,3.127-5.874,3.127C13.42,18.294,11.163,16.898,9.916,14.816z
		 M14.125,6.915c-1.065,0-1.929,0.872-1.929,1.948s0.863,1.948,1.929,1.948s1.929-0.873,1.929-1.948
		C16.054,7.787,15.191,6.915,14.125,6.915z"/>
</g>
<g id="Your_Icon_1_">
	<path fill="#AAAAAA" d="M16.017,19.326c0.409,0,0.806-0.044,1.197-0.11v6.677l-1.18,1.642l-1.249-1.642V19.21
		C15.507,19.337,15.747,19.326,16.017,19.326z M9.916,14.816c-0.537-0.996-0.854-2.131-0.854-3.344c0-3.87,3.106-7.008,6.939-7.008
		c3.832,0,6.938,3.137,6.938,7.008c0,1.245-0.326,2.411-0.892,3.425c-0.041,0.067-0.077,0.066-0.122,0.132
		c-0.013,0.023-0.033,0.115-0.046,0.138c-1.284,1.889-3.435,3.127-5.874,3.127C13.42,18.294,11.163,16.898,9.916,14.816z
		 M14.125,6.915c-1.065,0-1.929,0.872-1.929,1.948s0.863,1.948,1.929,1.948s1.929-0.873,1.929-1.948
		C16.054,7.787,15.191,6.915,14.125,6.915z"/>
</g>
<g>
</g>
<g>
</g>
<g>
</g>
<g>
</g>
<g>
</g>
<g>
</g>
<g>
</g>
<g>
</g>
<g>
</g>
<g>
</g>
<g>
</g>
<g>
</g>
<g>
</g>
<g>
</g>
<g>
</g>
</svg>
