<?xml version="1.0" encoding="utf-8"?>
<!-- Generator: Adobe Illustrator 17.0.0, SVG Export Plug-In . SVG Version: 6.00 Build 0)  -->
<!DOCTYPE svg PUBLIC "-//W3C//DTD SVG 1.1//EN" "http://www.w3.org/Graphics/SVG/1.1/DTD/svg11.dtd">
<svg version="1.1" id="Layer_1" xmlns="http://www.w3.org/2000/svg" xmlns:xlink="http://www.w3.org/1999/xlink" x="0px" y="0px"
	 width="20px" height="20px" viewBox="0 0 20 20" enable-background="new 0 0 20 20" xml:space="preserve">
<g>
	<g id="XMLID_75_">
		<g>
			<path fill="#E74C3C" d="M11.005,9.146C11.005,12.184,5.352,20,5.352,20S0,12.184,0,9.146s2.464-5.503,5.503-5.503
				S11.005,6.108,11.005,9.146z M1.786,9.442c0,2.053,1.664,3.717,3.717,3.717c2.052,0,3.716-1.664,3.716-3.717
				c0-2.052-1.664-3.717-3.716-3.717C3.45,5.725,1.786,7.389,1.786,9.442z"/>
		</g>
	</g>
	<path fill="#E74C3C" d="M7.578,9.617c-0.098,1.147-1.107,1.994-2.252,1.897s-1.994-1.107-1.895-2.252
		c0.098-1.146,1.106-1.994,2.252-1.896C6.827,7.464,7.676,8.473,7.578,9.617z"/>
</g>
<g>
</g>
<g>
</g>
<g>
</g>
<g>
</g>
<g>
</g>
<g>
</g>
<g>
</g>
<g>
</g>
<g>
</g>
<g>
</g>
<g>
</g>
<g>
</g>
<g>
</g>
<g>
</g>
<g>
</g>
</svg>
