<?xml version="1.0" encoding="utf-8"?>
<!-- Generator: Adobe Illustrator 17.0.0, SVG Export Plug-In . SVG Version: 6.00 Build 0)  -->
<!DOCTYPE svg PUBLIC "-//W3C//DTD SVG 1.1//EN" "http://www.w3.org/Graphics/SVG/1.1/DTD/svg11.dtd">
<svg version="1.1" id="Layer_1" xmlns="http://www.w3.org/2000/svg" xmlns:xlink="http://www.w3.org/1999/xlink" x="0px" y="0px"
	 width="32px" height="32px" viewBox="0 0 32 32" enable-background="new 0 0 32 32" xml:space="preserve">
<path fill="#AAAAAA" d="M21.504,20.908c0.536-0.552,0.826-1.297,0.804-2.065L22.035,9.24c-0.051-1.782-1.509-3.199-3.29-3.199H16
	h-2.745c-1.781,0-3.24,1.418-3.29,3.198l-0.273,9.603c-0.022,0.769,0.268,1.514,0.804,2.066c0.193,0.199,0.413,0.365,0.651,0.499
	l-1.245,4.553h1.842l0.474-1.734h7.567l0.474,1.734H22.1l-1.245-4.554C21.092,21.273,21.311,21.107,21.504,20.908z M19.469,20.227
	c-0.788,0-1.426-0.639-1.426-1.426c0-0.788,0.639-1.426,1.426-1.426c0.788,0,1.426,0.638,1.426,1.426
	C20.895,19.588,20.257,20.227,19.469,20.227z M14.194,7.47c0-0.269,0.218-0.488,0.488-0.488h2.684c0.269,0,0.488,0.218,0.488,0.488
	v0.039c0,0.269-0.218,0.488-0.488,0.488h-2.684c-0.269,0-0.488-0.218-0.488-0.488V7.47z M11.396,9.915
	C11.418,9.37,11.865,8.94,12.41,8.94h7.323c0.545,0,0.992,0.43,1.014,0.975l0.13,3.34c0.011,0.275-0.091,0.544-0.282,0.743
	s-0.456,0.312-0.732,0.312H12.28c-0.276,0-0.541-0.113-0.732-0.312c-0.192-0.198-0.294-0.467-0.283-0.743L11.396,9.915z
	 M12.531,17.375c0.788,0,1.426,0.638,1.426,1.426s-0.639,1.426-1.426,1.426c-0.787,0-1.426-0.639-1.426-1.426
	C11.105,18.014,11.743,17.375,12.531,17.375z M12.494,23.211l0.394-1.44h6.224l0.394,1.44H12.494z"/>
</svg>
