<?xml version="1.0" encoding="utf-8"?>
<!-- Generator: Adobe Illustrator 17.0.0, SVG Export Plug-In . SVG Version: 6.00 Build 0)  -->
<!DOCTYPE svg PUBLIC "-//W3C//DTD SVG 1.1//EN" "http://www.w3.org/Graphics/SVG/1.1/DTD/svg11.dtd">
<svg version="1.1" id="Layer_1" xmlns="http://www.w3.org/2000/svg" xmlns:xlink="http://www.w3.org/1999/xlink" x="0px" y="0px"
	 width="20px" height="20px" viewBox="0 0 20 20" enable-background="new 0 0 20 20" xml:space="preserve">
<g>
	<path fill="#AAAAAA" d="M10,0.443C4.73,0.443,0.443,4.73,0.443,10c0,5.27,4.287,9.557,9.557,9.557c5.27,0,9.557-4.287,9.557-9.557
		C19.557,4.73,15.27,0.443,10,0.443z M10.382,18.021v-1.089c0-0.21-0.171-0.381-0.382-0.381c-0.211,0-0.382,0.171-0.382,0.381v1.089
		c-4.125-0.194-7.445-3.514-7.639-7.639h1.089c0.211,0,0.382-0.171,0.382-0.382S3.279,9.619,3.068,9.619H1.979
		C2.173,5.494,5.494,2.174,9.618,1.98v1.089C9.618,3.279,9.789,3.45,10,3.45s0.382-0.171,0.382-0.382V1.98
		c4.125,0.194,7.445,3.514,7.639,7.639h-1.089c-0.21,0-0.382,0.171-0.382,0.382s0.171,0.382,0.382,0.382h1.089
		C17.827,14.507,14.506,17.827,10.382,18.021z"/>
	<path fill="#AAAAAA" d="M10.763,9.684V6.31c0-0.421-0.342-0.763-0.763-0.763c-0.421,0-0.763,0.342-0.763,0.763V10
		c0,0,0,0.001,0,0.001c0,0.049,0.005,0.099,0.015,0.148c0.005,0.023,0.013,0.044,0.019,0.066c0.008,0.026,0.014,0.052,0.024,0.077
		c0.011,0.026,0.025,0.049,0.038,0.073c0.011,0.02,0.019,0.04,0.032,0.059c0.028,0.042,0.06,0.081,0.095,0.116l4.332,4.332
		c0.149,0.149,0.344,0.224,0.54,0.224c0.195,0,0.391-0.075,0.54-0.224c0.298-0.298,0.298-0.781,0-1.079L10.763,9.684z"/>
</g>
<g>
</g>
<g>
</g>
<g>
</g>
<g>
</g>
<g>
</g>
<g>
</g>
<g>
</g>
<g>
</g>
<g>
</g>
<g>
</g>
<g>
</g>
<g>
</g>
<g>
</g>
<g>
</g>
<g>
</g>
</svg>
