<?xml version="1.0" encoding="utf-8"?>
<!-- Generator: Adobe Illustrator 17.0.0, SVG Export Plug-In . SVG Version: 6.00 Build 0)  -->
<!DOCTYPE svg PUBLIC "-//W3C//DTD SVG 1.1//EN" "http://www.w3.org/Graphics/SVG/1.1/DTD/svg11.dtd">
<svg version="1.1" id="Layer_1" xmlns="http://www.w3.org/2000/svg" xmlns:xlink="http://www.w3.org/1999/xlink" x="0px" y="0px"
	 width="20px" height="20px" viewBox="0 0 20 20" enable-background="new 0 0 20 20" xml:space="preserve">
<path fill="#AAAAAA" d="M15.504,14.867c0.536-0.552,0.826-1.297,0.804-2.065l-0.273-9.603C15.984,1.417,14.526,0,12.745,0H10H7.255
	c-1.781,0-3.24,1.418-3.29,3.198l-0.273,9.603C3.67,13.57,3.96,14.315,4.496,14.867c0.193,0.199,0.413,0.365,0.651,0.499
	l-1.245,4.553h1.842l0.474-1.734h7.567l0.474,1.734H16.1l-1.245-4.554C15.092,15.232,15.311,15.066,15.504,14.867z M13.469,14.186
	c-0.788,0-1.426-0.639-1.426-1.426c0-0.788,0.639-1.426,1.426-1.426c0.788,0,1.426,0.638,1.426,1.426
	C14.895,13.547,14.257,14.186,13.469,14.186z M8.194,1.429c0-0.269,0.218-0.488,0.488-0.488h2.684c0.269,0,0.488,0.218,0.488,0.488
	v0.039c0,0.269-0.218,0.488-0.488,0.488H8.682c-0.269,0-0.488-0.218-0.488-0.488V1.429z M5.396,3.874
	C5.418,3.329,5.865,2.899,6.41,2.899h7.323c0.545,0,0.992,0.43,1.014,0.975l0.13,3.34c0.011,0.275-0.091,0.544-0.282,0.743
	c-0.191,0.199-0.456,0.312-0.732,0.312H6.28c-0.276,0-0.541-0.113-0.732-0.312C5.356,7.759,5.254,7.49,5.265,7.214L5.396,3.874z
	 M6.531,11.335c0.788,0,1.426,0.638,1.426,1.426s-0.639,1.426-1.426,1.426s-1.426-0.639-1.426-1.426
	C5.105,11.973,5.743,11.335,6.531,11.335z M6.494,17.17l0.394-1.44h6.224l0.394,1.44H6.494z"/>
<g>
</g>
<g>
</g>
<g>
</g>
<g>
</g>
<g>
</g>
<g>
</g>
<g>
</g>
<g>
</g>
<g>
</g>
<g>
</g>
<g>
</g>
<g>
</g>
<g>
</g>
<g>
</g>
<g>
</g>
</svg>
