<?xml version="1.0" encoding="utf-8"?>
<!-- Generator: Adobe Illustrator 17.0.0, SVG Export Plug-In . SVG Version: 6.00 Build 0)  -->
<!DOCTYPE svg PUBLIC "-//W3C//DTD SVG 1.1//EN" "http://www.w3.org/Graphics/SVG/1.1/DTD/svg11.dtd">
<svg version="1.1" id="Layer_1" xmlns="http://www.w3.org/2000/svg" xmlns:xlink="http://www.w3.org/1999/xlink" x="0px" y="0px"
	 width="14px" height="14px" viewBox="0 0 14 14" enable-background="new 0 0 14 14" xml:space="preserve">
<g>
	<path fill="#2D2D2D" d="M13.472,7.876c-0.205,0.205-0.539,0.205-0.744,0L6.283,1.431c-0.205-0.205-0.205-0.539,0-0.744l0.374-0.374
		c0.205-0.205,0.539-0.205,0.744,0l6.446,6.445c0.204,0.205,0.205,0.539,0,0.744L13.472,7.876z"/>
</g>
<g>
	<path fill="#2D2D2D" d="M6.283,13.572c-0.205-0.205-0.205-0.539,0-0.744l6.445-6.445c0.205-0.205,0.539-0.205,0.744,0l0.374,0.374
		c0.204,0.205,0.205,0.539,0,0.744l-6.445,6.445c-0.205,0.204-0.539,0.205-0.744,0L6.283,13.572z"/>
</g>
<g>
	<path fill="#2D2D2D" d="M7.374,7.776c-0.205,0.205-0.539,0.205-0.744,0L0.185,1.331c-0.205-0.205-0.205-0.539,0-0.744l0.374-0.374
		c0.205-0.205,0.539-0.205,0.744,0l6.446,6.445c0.204,0.205,0.205,0.539,0,0.744L7.374,7.776z"/>
</g>
<g>
	<path fill="#2D2D2D" d="M0.185,13.472c-0.205-0.205-0.205-0.539,0-0.744L6.63,6.283c0.205-0.205,0.539-0.205,0.744,0l0.374,0.374
		c0.204,0.205,0.205,0.539,0,0.744l-6.445,6.445c-0.205,0.204-0.539,0.205-0.744,0L0.185,13.472z"/>
</g>
<g>
</g>
<g>
</g>
<g>
</g>
<g>
</g>
<g>
</g>
<g>
</g>
<g>
</g>
<g>
</g>
<g>
</g>
<g>
</g>
<g>
</g>
<g>
</g>
<g>
</g>
<g>
</g>
<g>
</g>
</svg>
