<?xml version="1.0" encoding="utf-8"?>
<!-- Generator: Adobe Illustrator 17.0.0, SVG Export Plug-In . SVG Version: 6.00 Build 0)  -->
<!DOCTYPE svg PUBLIC "-//W3C//DTD SVG 1.1//EN" "http://www.w3.org/Graphics/SVG/1.1/DTD/svg11.dtd">
<svg version="1.1" id="Layer_1" xmlns="http://www.w3.org/2000/svg" xmlns:xlink="http://www.w3.org/1999/xlink" x="0px" y="0px"
	 width="15px" height="22px" viewBox="0 0 15 22" enable-background="new 0 0 15 22" xml:space="preserve">
<g>
	<g id="XMLID_75_">
		<g>
			<path fill="#E74B3B" d="M14.913,7.413c0,4.093-7.616,14.623-7.616,14.623s-7.21-10.53-7.21-14.623S3.407,0,7.5,0
				S14.913,3.32,14.913,7.413z M2.493,7.812c0,2.765,2.242,5.007,5.007,5.007c2.765,0,5.007-2.242,5.007-5.007
				c0-2.765-2.242-5.007-5.007-5.007C4.734,2.805,2.493,5.046,2.493,7.812z"/>
		</g>
	</g>
	<path fill="#E74B3B" d="M10.296,8.048c-0.133,1.545-1.491,2.687-3.034,2.555c-1.543-0.132-2.686-1.491-2.553-3.034
		c0.132-1.544,1.49-2.686,3.034-2.554C9.285,5.147,10.428,6.506,10.296,8.048z"/>
</g>
<g>
</g>
<g>
</g>
<g>
</g>
<g>
</g>
<g>
</g>
<g>
</g>
<g>
</g>
<g>
</g>
<g>
</g>
<g>
</g>
<g>
</g>
<g>
</g>
<g>
</g>
<g>
</g>
<g>
</g>
</svg>
