<?xml version="1.0" encoding="utf-8"?>
<!-- Generator: Adobe Illustrator 17.0.0, SVG Export Plug-In . SVG Version: 6.00 Build 0)  -->
<!DOCTYPE svg PUBLIC "-//W3C//DTD SVG 1.1//EN" "http://www.w3.org/Graphics/SVG/1.1/DTD/svg11.dtd">
<svg version="1.1" id="Layer_1" xmlns="http://www.w3.org/2000/svg" xmlns:xlink="http://www.w3.org/1999/xlink" x="0px" y="0px"
	 width="13px" height="22px" viewBox="0 0 13 22" enable-background="new 0 0 13 22" xml:space="preserve">
<path fill="#E74B3B" d="M12.118,16.009c0.547-0.563,0.843-1.324,0.821-2.108L12.66,4.099c-0.052-1.818-1.54-3.264-3.358-3.264H6.5
	H3.698c-1.818,0-3.307,1.447-3.358,3.264l-0.279,9.802c-0.022,0.785,0.274,1.545,0.821,2.108c0.197,0.203,0.422,0.373,0.664,0.509
	l-1.271,4.647h1.88l0.484-1.77h7.723l0.484,1.77h1.88l-1.271-4.648C11.697,16.382,11.921,16.212,12.118,16.009z M10.041,15.314
	c-0.804,0-1.455-0.652-1.455-1.455c0-0.804,0.652-1.455,1.455-1.455c0.804,0,1.455,0.651,1.455,1.455
	C11.496,14.662,10.845,15.314,10.041,15.314z M4.657,2.294c0-0.275,0.223-0.498,0.498-0.498h2.739c0.275,0,0.498,0.223,0.498,0.498
	v0.04c0,0.275-0.223,0.498-0.498,0.498H5.155c-0.275,0-0.498-0.223-0.498-0.498V2.294z M1.801,4.789
	C1.823,4.233,2.28,3.794,2.836,3.794h7.474c0.556,0,1.013,0.439,1.035,0.995l0.133,3.409c0.011,0.281-0.093,0.555-0.288,0.758
	c-0.195,0.203-0.465,0.318-0.747,0.318H2.703c-0.282,0-0.552-0.115-0.747-0.318C1.76,8.754,1.656,8.48,1.667,8.198L1.801,4.789z
	 M2.959,12.404c0.804,0,1.455,0.651,1.455,1.455c0,0.804-0.652,1.455-1.455,1.455s-1.455-0.652-1.455-1.455
	C1.504,13.055,2.155,12.404,2.959,12.404z M2.922,18.36l0.402-1.47h6.353l0.402,1.47H2.922z"/>
<g>
</g>
<g>
</g>
<g>
</g>
<g>
</g>
<g>
</g>
<g>
</g>
<g>
</g>
<g>
</g>
<g>
</g>
<g>
</g>
<g>
</g>
<g>
</g>
<g>
</g>
<g>
</g>
<g>
</g>
</svg>
