<?xml version="1.0" encoding="utf-8"?>
<!-- Generator: Adobe Illustrator 17.0.0, SVG Export Plug-In . SVG Version: 6.00 Build 0)  -->
<!DOCTYPE svg PUBLIC "-//W3C//DTD SVG 1.1//EN" "http://www.w3.org/Graphics/SVG/1.1/DTD/svg11.dtd">
<svg version="1.1" id="Layer_1" xmlns="http://www.w3.org/2000/svg" xmlns:xlink="http://www.w3.org/1999/xlink" x="0px" y="0px"
	 width="32px" height="32px" viewBox="0 0 32 32" enable-background="new 0 0 32 32" xml:space="preserve">
<g>
	<g id="XMLID_75_">
		<g>
			<path fill="#E74B3B" d="M23.413,12.395c0,4.093-7.616,14.623-7.616,14.623s-7.21-10.53-7.21-14.623S11.907,4.982,16,4.982
				S23.413,8.302,23.413,12.395z M10.993,12.794c0,2.765,2.242,5.007,5.007,5.007s5.007-2.242,5.007-5.007S18.765,7.787,16,7.787
				C13.234,7.787,10.993,10.028,10.993,12.794z"/>
		</g>
	</g>
	<path fill="#E74B3B" d="M18.796,13.03c-0.133,1.545-1.491,2.687-3.034,2.555c-1.543-0.132-2.686-1.491-2.553-3.034
		c0.132-1.544,1.49-2.686,3.034-2.554C17.785,10.129,18.928,11.488,18.796,13.03z"/>
</g>
<g>
</g>
<g>
</g>
<g>
</g>
<g>
</g>
<g>
</g>
<g>
</g>
<g>
</g>
<g>
</g>
<g>
</g>
<g>
</g>
<g>
</g>
<g>
</g>
<g>
</g>
<g>
</g>
<g>
</g>
</svg>
