<?xml version="1.0" encoding="utf-8"?>
<!-- Generator: Adobe Illustrator 17.0.0, SVG Export Plug-In . SVG Version: 6.00 Build 0)  -->
<!DOCTYPE svg PUBLIC "-//W3C//DTD SVG 1.1//EN" "http://www.w3.org/Graphics/SVG/1.1/DTD/svg11.dtd">
<svg version="1.1" id="Layer_1" xmlns="http://www.w3.org/2000/svg" xmlns:xlink="http://www.w3.org/1999/xlink" x="0px" y="0px"
	 width="32px" height="32px" viewBox="0 0 32 32" enable-background="new 0 0 32 32" xml:space="preserve">
<path fill="#E74B3B" d="M21.618,21.009c0.547-0.563,0.843-1.324,0.821-2.108L22.16,9.099c-0.052-1.818-1.54-3.264-3.358-3.264H16
	h-2.802c-1.818,0-3.307,1.447-3.358,3.264l-0.279,9.802c-0.022,0.785,0.274,1.545,0.821,2.108c0.197,0.203,0.422,0.373,0.664,0.509
	l-1.271,4.647h1.88l0.484-1.77h7.723l0.484,1.77h1.88l-1.271-4.648C21.197,21.382,21.421,21.212,21.618,21.009z M19.541,20.314
	c-0.804,0-1.455-0.652-1.455-1.455c0-0.804,0.652-1.455,1.455-1.455c0.804,0,1.455,0.651,1.455,1.455
	C20.996,19.662,20.345,20.314,19.541,20.314z M14.157,7.294c0-0.275,0.223-0.498,0.498-0.498h2.739c0.275,0,0.498,0.223,0.498,0.498
	v0.04c0,0.275-0.223,0.498-0.498,0.498h-2.739c-0.275,0-0.498-0.223-0.498-0.498V7.294z M11.301,9.789
	c0.022-0.556,0.479-0.995,1.035-0.995h7.474c0.556,0,1.013,0.439,1.035,0.995l0.133,3.409c0.011,0.281-0.093,0.555-0.288,0.758
	c-0.195,0.203-0.465,0.318-0.747,0.318h-7.74c-0.282,0-0.552-0.115-0.747-0.318c-0.196-0.202-0.3-0.476-0.289-0.758L11.301,9.789z
	 M12.459,17.404c0.804,0,1.455,0.651,1.455,1.455c0,0.804-0.652,1.455-1.455,1.455c-0.803,0-1.455-0.652-1.455-1.455
	C11.004,18.055,11.655,17.404,12.459,17.404z M12.422,23.36l0.402-1.47h6.353l0.402,1.47H12.422z"/>
<g>
</g>
<g>
</g>
<g>
</g>
<g>
</g>
<g>
</g>
<g>
</g>
<g>
</g>
<g>
</g>
<g>
</g>
<g>
</g>
<g>
</g>
<g>
</g>
<g>
</g>
<g>
</g>
<g>
</g>
</svg>
