<?xml version="1.0" encoding="utf-8"?>
<!-- Generator: Adobe Illustrator 17.0.0, SVG Export Plug-In . SVG Version: 6.00 Build 0)  -->
<!DOCTYPE svg PUBLIC "-//W3C//DTD SVG 1.1//EN" "http://www.w3.org/Graphics/SVG/1.1/DTD/svg11.dtd">
<svg version="1.1" id="Layer_1" xmlns="http://www.w3.org/2000/svg" xmlns:xlink="http://www.w3.org/1999/xlink" x="0px" y="0px"
	 width="32px" height="32px" viewBox="0 0 32 32" enable-background="new 0 0 32 32" xml:space="preserve">
<g>
	<g>
		<path fill="#2D2D2D" d="M9.543,15.204c0.205-0.205,0.539-0.205,0.744,0l6.446,6.445c0.205,0.205,0.205,0.539,0,0.744l-0.374,0.374
			c-0.205,0.205-0.539,0.205-0.744,0l-6.446-6.444c-0.204-0.205-0.205-0.539,0-0.744L9.543,15.204z"/>
	</g>
	<g>
		<path fill="#2D2D2D" d="M16.732,9.508c0.205,0.205,0.205,0.539,0,0.744l-6.445,6.445c-0.205,0.205-0.539,0.205-0.744,0
			l-0.374-0.374c-0.204-0.205-0.205-0.539,0-0.744l6.445-6.446c0.205-0.204,0.539-0.205,0.744,0L16.732,9.508z"/>
	</g>
	<g>
		<path fill="#2D2D2D" d="M15.641,15.304c0.205-0.205,0.539-0.205,0.744,0l6.446,6.445c0.205,0.205,0.205,0.539,0,0.744
			l-0.374,0.374c-0.205,0.205-0.539,0.205-0.744,0l-6.446-6.444c-0.204-0.205-0.205-0.539,0-0.744L15.641,15.304z"/>
	</g>
	<g>
		<path fill="#2D2D2D" d="M22.83,9.608c0.205,0.205,0.205,0.539,0,0.744l-6.445,6.445c-0.205,0.205-0.539,0.205-0.744,0
			l-0.374-0.374c-0.204-0.205-0.205-0.539,0-0.744l6.445-6.445c0.205-0.204,0.539-0.205,0.744,0L22.83,9.608z"/>
	</g>
</g>
<g>
</g>
<g>
</g>
<g>
</g>
<g>
</g>
<g>
</g>
<g>
</g>
<g>
</g>
<g>
</g>
<g>
</g>
<g>
</g>
<g>
</g>
<g>
</g>
<g>
</g>
<g>
</g>
<g>
</g>
</svg>
