<?xml version="1.0" encoding="utf-8"?>
<!-- Generator: Adobe Illustrator 17.0.0, SVG Export Plug-In . SVG Version: 6.00 Build 0)  -->
<!DOCTYPE svg PUBLIC "-//W3C//DTD SVG 1.1//EN" "http://www.w3.org/Graphics/SVG/1.1/DTD/svg11.dtd">
<svg version="1.1" id="Layer_1" xmlns="http://www.w3.org/2000/svg" xmlns:xlink="http://www.w3.org/1999/xlink" x="0px" y="0px"
	 width="32px" height="32px" viewBox="0 0 32 32" enable-background="new 0 0 32 32" xml:space="preserve">
<g>
	<path fill="#AAAAAA" d="M16,6.443c-5.27,0-9.557,4.287-9.557,9.557S10.73,25.557,16,25.557S25.557,21.27,25.557,16
		S21.27,6.443,16,6.443z M16.382,24.021v-1.089c0-0.21-0.171-0.381-0.382-0.381s-0.382,0.171-0.382,0.381v1.089
		c-4.125-0.194-7.445-3.514-7.639-7.639h1.089c0.211,0,0.382-0.171,0.382-0.382s-0.171-0.381-0.382-0.381H7.979
		c0.194-4.125,3.515-7.445,7.639-7.639v1.089c0,0.21,0.171,0.381,0.382,0.381s0.382-0.171,0.382-0.382V7.98
		c4.125,0.194,7.445,3.514,7.639,7.639h-1.089c-0.21,0-0.382,0.171-0.382,0.382s0.171,0.382,0.382,0.382h1.089
		C23.827,20.507,20.506,23.827,16.382,24.021z"/>
	<path fill="#AAAAAA" d="M16.763,15.684V12.31c0-0.421-0.342-0.763-0.763-0.763s-0.763,0.342-0.763,0.763V16v0.001
		c0,0.049,0.005,0.099,0.015,0.148c0.005,0.023,0.013,0.044,0.019,0.066c0.008,0.026,0.014,0.052,0.024,0.077
		c0.011,0.026,0.025,0.049,0.038,0.073c0.011,0.02,0.019,0.04,0.032,0.059c0.028,0.042,0.06,0.081,0.095,0.116l4.332,4.332
		c0.149,0.149,0.344,0.224,0.54,0.224c0.195,0,0.391-0.075,0.54-0.224c0.298-0.298,0.298-0.781,0-1.079L16.763,15.684z"/>
</g>
</svg>
