<?xml version="1.0" encoding="utf-8"?>
<!-- Generator: Adobe Illustrator 17.0.0, SVG Export Plug-In . SVG Version: 6.00 Build 0)  -->
<!DOCTYPE svg PUBLIC "-//W3C//DTD SVG 1.1//EN" "http://www.w3.org/Graphics/SVG/1.1/DTD/svg11.dtd">
<svg version="1.1" id="Layer_1" xmlns="http://www.w3.org/2000/svg" xmlns:xlink="http://www.w3.org/1999/xlink" x="0px" y="0px"
	 width="48px" height="82px" viewBox="0 0 48 82" enable-background="new 0 0 48 82" xml:space="preserve">
<g>
	<path fill="#7E7E7E" d="M4.572,36.745c1.167-1.167,3.076-1.167,4.242,0l36.751,36.748c1.167,1.167,1.167,3.076,0,4.242
		l-2.134,2.135c-1.167,1.167-3.076,1.167-4.243,0L2.437,43.122c-1.166-1.167-1.167-3.075,0-4.242L4.572,36.745z"/>
</g>
<g>
	<path fill="#7E7E7E" d="M45.564,4.265c1.167,1.167,1.167,3.076,0,4.242L8.816,45.257c-1.167,1.167-3.076,1.167-4.242,0
		l-2.135-2.135c-1.166-1.167-1.167-3.076,0-4.242L39.188,2.13c1.167-1.166,3.076-1.167,4.242,0L45.564,4.265z"/>
</g>
<g>
</g>
<g>
</g>
<g>
</g>
<g>
</g>
<g>
</g>
<g>
</g>
<g>
</g>
<g>
</g>
<g>
</g>
<g>
</g>
<g>
</g>
<g>
</g>
<g>
</g>
<g>
</g>
<g>
</g>
</svg>
