<?xml version="1.0" encoding="utf-8"?>
<!-- Generator: Adobe Illustrator 17.0.0, SVG Export Plug-In . SVG Version: 6.00 Build 0)  -->
<!DOCTYPE svg PUBLIC "-//W3C//DTD SVG 1.1//EN" "http://www.w3.org/Graphics/SVG/1.1/DTD/svg11.dtd">
<svg version="1.1" id="Layer_1" xmlns="http://www.w3.org/2000/svg" xmlns:xlink="http://www.w3.org/1999/xlink" x="0px" y="0px"
	 width="24px" height="24px" viewBox="0 0 24 24" enable-background="new 0 0 24 24" xml:space="preserve">
<g id="Your_Icon">
	<path fill="#AAAAAA" d="M12.017,15.326c0.409,0,0.806-0.044,1.197-0.11v6.677l-1.18,1.642l-1.249-1.642v-6.684
		C11.507,15.337,11.747,15.326,12.017,15.326z M5.915,10.816C5.378,9.82,5.061,8.685,5.061,7.472c0-3.87,3.106-7.008,6.939-7.008
		c3.832,0,6.938,3.137,6.938,7.008c0,1.245-0.326,2.411-0.892,3.425c-0.041,0.067-0.077,0.066-0.122,0.132
		c-0.013,0.023-0.033,0.115-0.046,0.138c-1.284,1.889-3.435,3.127-5.874,3.127C9.42,14.294,7.162,12.898,5.915,10.816z
		 M10.125,2.915c-1.065,0-1.929,0.872-1.929,1.948c0,1.076,0.863,1.948,1.929,1.948s1.929-0.873,1.929-1.948
		C12.053,3.787,11.19,2.915,10.125,2.915z"/>
</g>
<g>
</g>
<g>
</g>
<g>
</g>
<g>
</g>
<g>
</g>
<g>
</g>
<g>
</g>
<g>
</g>
<g>
</g>
<g>
</g>
<g>
</g>
<g>
</g>
<g>
</g>
<g>
</g>
<g>
</g>
</svg>
