<?xml version="1.0" encoding="utf-8"?>
<!-- Generator: Adobe Illustrator 17.0.0, SVG Export Plug-In . SVG Version: 6.00 Build 0)  -->
<!DOCTYPE svg PUBLIC "-//W3C//DTD SVG 1.1//EN" "http://www.w3.org/Graphics/SVG/1.1/DTD/svg11.dtd">
<svg version="1.1" id="Layer_1" xmlns="http://www.w3.org/2000/svg" xmlns:xlink="http://www.w3.org/1999/xlink" x="0px" y="0px"
	 width="24px" height="24px" viewBox="0 0 24 24" enable-background="new 0 0 24 24" xml:space="preserve">
<path fill="#AAAAAA" d="M20,3H4C2.343,3,1,4.343,1,6v12c0,1.657,1.343,3,3,3h16c1.657,0,3-1.343,3-3V6C23,4.343,21.657,3,20,3z
	 M15,16H8.922c0,0-0.066-0.453-0.014-0.596s0.058-0.273,0.188-0.39l2.687-2.75c0.234-0.234,0.416-0.457,0.59-0.669
	c0.173-0.212,0.306-0.421,0.418-0.627c0.113-0.206,0.192-0.412,0.249-0.618c0.056-0.206,0.081-0.423,0.081-0.653
	c0-0.377-0.091-0.667-0.271-0.868c-0.18-0.201-0.455-0.302-0.823-0.302c-0.151,0-0.29,0.022-0.416,0.065
	c-0.126,0.043-0.238,0.102-0.338,0.176s-0.186,0.16-0.257,0.26c-0.071,0.1-0.129,0.208-0.172,0.325
	c-0.069,0.195-0.157,0.336-0.264,0.422c-0.106,0.087-0.25,0.13-0.432,0.13c-0.044,0-0.091-0.002-0.141-0.007
	s-0.101-0.011-0.152-0.02L8.789,9.69c0.069-0.472,0.203-0.884,0.4-1.235S9.63,7.812,9.923,7.578
	c0.292-0.234,0.627-0.409,1.004-0.523s0.782-0.172,1.216-0.172c0.468,0,0.89,0.068,1.265,0.205c0.374,0.136,0.694,0.326,0.958,0.569
	c0.265,0.243,0.467,0.532,0.608,0.868c0.141,0.336,0.211,0.705,0.211,1.108c0,0.347-0.049,0.667-0.146,0.962
	c-0.098,0.294-0.23,0.575-0.399,0.841c-0.169,0.267-0.365,0.524-0.589,0.774c-0.223,0.249-0.46,0.501-0.711,0.757l-1.853,1.899
	c0.238-0.069,3.482-0.037,3.482-0.037L15,16z"/>
<g>
</g>
<g>
</g>
<g>
</g>
<g>
</g>
<g>
</g>
<g>
</g>
<g>
</g>
<g>
</g>
<g>
</g>
<g>
</g>
<g>
</g>
<g>
</g>
<g>
</g>
<g>
</g>
<g>
</g>
</svg>
