<?xml version="1.0" encoding="utf-8"?>
<!-- Generator: Adobe Illustrator 17.0.0, SVG Export Plug-In . SVG Version: 6.00 Build 0)  -->
<!DOCTYPE svg PUBLIC "-//W3C//DTD SVG 1.1//EN" "http://www.w3.org/Graphics/SVG/1.1/DTD/svg11.dtd">
<svg version="1.1" id="Layer_1" xmlns="http://www.w3.org/2000/svg" xmlns:xlink="http://www.w3.org/1999/xlink" x="0px" y="0px"
	 width="24px" height="24px" viewBox="0 0 24 24" enable-background="new 0 0 24 24" xml:space="preserve">
<g>
	<rect x="16" y="10.799" fill="#AAAAAA" width="1.662" height="1.724"/>
</g>
<g>
	<rect x="13.572" y="10.799" fill="#AAAAAA" width="1.66" height="1.724"/>
</g>
<g>
	<rect x="11.141" y="10.799" fill="#AAAAAA" width="1.659" height="1.724"/>
</g>
<g>
	<rect x="16" y="13.203" fill="#AAAAAA" width="1.662" height="1.725"/>
</g>
<g>
	<rect x="13.572" y="13.203" fill="#AAAAAA" width="1.66" height="1.725"/>
</g>
<g>
	<rect x="11.141" y="13.203" fill="#AAAAAA" width="1.659" height="1.725"/>
</g>
<g>
	<rect x="8.711" y="13.203" fill="#AAAAAA" width="1.661" height="1.725"/>
</g>
<g>
	<rect x="6.282" y="13.203" fill="#AAAAAA" width="1.661" height="1.725"/>
</g>
<g>
	<rect x="16" y="15.606" fill="#AAAAAA" width="1.662" height="1.724"/>
</g>
<g>
	<rect x="13.572" y="15.606" fill="#AAAAAA" width="1.66" height="1.724"/>
</g>
<g>
	<rect x="11.141" y="15.606" fill="#AAAAAA" width="1.659" height="1.724"/>
</g>
<g>
	<rect x="8.711" y="15.606" fill="#AAAAAA" width="1.661" height="1.724"/>
</g>
<g>
	<rect x="6.282" y="15.606" fill="#AAAAAA" width="1.661" height="1.724"/>
</g>
<g>
	<rect x="13.572" y="18.01" fill="#AAAAAA" width="1.66" height="1.723"/>
</g>
<g>
	<rect x="11.141" y="18.01" fill="#AAAAAA" width="1.659" height="1.723"/>
</g>
<g>
	<rect x="8.711" y="18.01" fill="#AAAAAA" width="1.661" height="1.723"/>
</g>
<g>
	<rect x="6.282" y="18.01" fill="#AAAAAA" width="1.661" height="1.723"/>
</g>
<path fill="#AAAAAA" d="M18.429,3.507v2.92h-3.051v-2.92H8.655v2.92H5.612v-2.92H2.164v19.672h19.673V3.507H18.429z M20.187,21.53
	H3.813V8.753h16.373V21.53z"/>
<rect x="16.082" y="0.821" fill="#AAAAAA" width="1.645" height="4.884"/>
<rect x="6.282" y="0.821" fill="#AAAAAA" width="1.645" height="4.884"/>
<g>
</g>
<g>
</g>
<g>
</g>
<g>
</g>
<g>
</g>
<g>
</g>
<g>
</g>
<g>
</g>
<g>
</g>
<g>
</g>
<g>
</g>
<g>
</g>
<g>
</g>
<g>
</g>
<g>
</g>
</svg>
