<?xml version="1.0" encoding="utf-8"?>
<!-- Generator: Adobe Illustrator 17.0.0, SVG Export Plug-In . SVG Version: 6.00 Build 0)  -->
<!DOCTYPE svg PUBLIC "-//W3C//DTD SVG 1.1//EN" "http://www.w3.org/Graphics/SVG/1.1/DTD/svg11.dtd">
<svg version="1.1" id="Layer_1" xmlns="http://www.w3.org/2000/svg" xmlns:xlink="http://www.w3.org/1999/xlink" x="0px" y="0px"
	 width="30px" height="24px" viewBox="0 0 30 24" enable-background="new 0 0 30 24" xml:space="preserve">
<g>
	<path fill="none" d="M16.571,6.599c-0.138-0.017-0.278-0.026-0.417-0.026c-1.679,0-3.101,1.258-3.309,2.926
		c-0.228,1.827,1.072,3.499,2.899,3.727c0.138,0.017,0.279,0.026,0.417,0.026c1.679,0,3.102-1.258,3.31-2.926
		c0.11-0.883-0.131-1.757-0.679-2.463C18.243,7.159,17.455,6.71,16.571,6.599z"/>
	<g>
		<circle fill="#E74B3B" cx="16.3" cy="9.77" r="3.339"/>
	</g>
	<path fill="#2C2C2C" d="M15.408,1.026c-0.115-0.711-0.786-1.192-1.497-1.077c-0.71,0.116-1.192,0.786-1.075,1.496
		c0.075,0.465,0.389,0.832,0.796,0.998c0.088,0.751,0.205,1.722,0.271,2.199l1.221-0.17c-0.064-0.46-0.179-1.418-0.267-2.164
		C15.26,2.031,15.492,1.541,15.408,1.026z"/>
	<g>
		<path fill="#2C2C2C" d="M9.133,18.353c0.27,0.424,0.544,0.838,0.818,1.239c0.989-0.551,2.221-1.026,3.826-0.825
			c1.04,0.13,2.488,0.73,3.558,1.724c0.369-0.327,0.742-0.666,1.112-1.016c-1.053-0.991-2.554-1.922-4.473-2.162
			C12.038,17.07,10.415,17.626,9.133,18.353z"/>
	</g>
	<g>
		<path fill="#2C2C2C" d="M10.666,20.304c0.318,0.445,0.624,0.864,0.911,1.254c0.527-0.403,1.219-0.484,1.862-0.403
			c0.638,0.08,1.458,0.411,1.752,0.852c0.378-0.312,0.783-0.649,1.206-1.009c-0.618-0.53-1.494-1.156-2.772-1.316
			C12.361,19.524,11.407,19.935,10.666,20.304z"/>
	</g>
	<g>
		<path fill="#2C2C2C" d="M14.244,22.671c-0.012-0.045-0.03-0.088-0.048-0.13c-0.001,0-0.002-0.001-0.002-0.001
			c0,0,0.001-0.001,0.001-0.001c-0.137-0.315-0.434-0.555-0.807-0.602c-0.354-0.044-0.687,0.096-0.899,0.342
			c-0.032,0.037-0.06,0.076-0.086,0.118c-0.026,0.042-0.048,0.087-0.067,0.133c-0.035,0.081-0.063,0.167-0.075,0.259
			c-0.024,0.19,0.012,0.373,0.091,0.536c0.064,0.134,0.159,0.253,0.277,0.347c0.143,0.115,0.319,0.195,0.517,0.219
			c0.109,0.013,0.214,0.005,0.316-0.013c0.32-0.059,0.589-0.265,0.724-0.553c0.042-0.089,0.074-0.183,0.087-0.285
			C14.287,22.912,14.276,22.788,14.244,22.671z"/>
	</g>
	<path fill="#2C2C2C" d="M29.797,9.951c-0.2-0.809-2.097-1.098-5.034-0.528c-0.682,0.133-1.296,0.32-1.836,0.531
		c-0.787-3.346-3.577-6.015-7.183-6.466c-0.354-0.044-0.707-0.066-1.055-0.066c-4.204,0-7.859,3.139-8.393,7.417
		c-0.011,0.089-0.015,0.182-0.02,0.275c-0.015,0.27-0.005,0.555,0.027,0.85c-0.59,0.027-1.244,0.107-1.94,0.273
		c-2.846,0.678-4.419,1.702-4.271,2.503c0.149,0.801,2.42,1.466,4.368,0.895c0.771-0.226,1.665-0.687,2.482-1.182
		c0.05,0.133,0.102,0.267,0.157,0.4c0.008,0.018,0.015,0.037,0.023,0.055c0.178,0.431,0.38,0.863,0.598,1.292
		c0.239,0.473,0.498,0.943,0.77,1.406c1.247-0.719,2.763-1.213,4.497-1.213c0.379,0,0.768,0.023,1.167,0.073
		c2.208,0.276,3.928,1.255,5.175,2.448c0.399-0.405,0.787-0.82,1.153-1.243c0.437-0.505,0.842-1.02,1.198-1.539
		c0.016-0.023,0.031-0.045,0.046-0.068c0.114-0.168,0.224-0.337,0.327-0.506c0.109-0.18,0.21-0.358,0.304-0.536
		c0.39-0.728,0.656-1.434,0.738-2.089c0.016-0.128,0.025-0.255,0.033-0.382c1.018,0.13,2.118,0.196,2.979,0.074
		C28.162,12.339,29.997,10.76,29.797,9.951z M20.695,10.479c-0.288,2.31-2.263,4.006-4.533,4.006c-0.188,0-0.379-0.012-0.57-0.036
		c-2.501-0.312-4.281-2.601-3.969-5.103c0.288-2.31,2.263-4.005,4.533-4.006c0.188,0,0.378,0.012,0.569,0.036
		C19.226,5.688,21.007,7.978,20.695,10.479z"/>
</g>
<g>
</g>
<g>
</g>
<g>
</g>
<g>
</g>
<g>
</g>
<g>
</g>
<g>
</g>
<g>
</g>
<g>
</g>
<g>
</g>
<g>
</g>
<g>
</g>
<g>
</g>
<g>
</g>
<g>
</g>
</svg>
