<?xml version="1.0" encoding="utf-8"?>
<!-- Generator: Adobe Illustrator 17.0.0, SVG Export Plug-In . SVG Version: 6.00 Build 0)  -->
<!DOCTYPE svg PUBLIC "-//W3C//DTD SVG 1.1//EN" "http://www.w3.org/Graphics/SVG/1.1/DTD/svg11.dtd">
<svg version="1.1" id="Layer_1" xmlns="http://www.w3.org/2000/svg" xmlns:xlink="http://www.w3.org/1999/xlink" x="0px" y="0px"
	 width="500px" height="500px" viewBox="0 0 500 500" enable-background="new 0 0 500 500" xml:space="preserve">
<g>
	<path fill="none" d="M274.287,170.514c-2.068-0.26-4.164-0.391-6.23-0.391c-25.102,0.002-46.379,18.81-49.487,43.75
		c-3.411,27.32,16.029,52.32,43.349,55.731c2.068,0.26,4.168,0.391,6.238,0.391c25.102,0,46.392-18.808,49.503-43.75
		c1.647-13.204-1.959-26.281-10.161-36.825C299.29,178.878,287.5,172.163,274.287,170.514z"/>
	<g>
		<path fill="#CC2929" d="M264.045,267.474c27.376,3.419,52.326-16,55.741-43.359c3.416-27.361-15.996-52.313-43.369-55.731
			c-27.378-3.422-52.305,15.998-55.721,43.359C217.281,239.102,236.663,264.056,264.045,267.474z"/>
	</g>
	<path d="M256.896,87.161c-1.724-10.631-11.75-17.83-22.384-16.1c-10.617,1.735-17.822,11.75-16.083,22.373
		c1.127,6.96,5.814,12.443,11.902,14.922c1.323,11.228,3.062,25.745,4.058,32.888l18.255-2.544
		c-0.957-6.879-2.677-21.21-3.988-32.359C254.685,102.198,258.157,94.864,256.896,87.161z"/>
	<g>
		<path d="M163.064,346.279c4.035,6.34,8.135,12.537,12.233,18.525c14.796-8.239,33.215-15.338,57.208-12.341
			c15.553,1.943,37.206,10.91,53.214,25.776c5.52-4.886,11.091-9.957,16.632-15.199c-15.746-14.82-38.186-28.749-66.895-32.333
			C206.502,327.09,182.226,335.413,163.064,346.279z"/>
	</g>
	<g>
		<path d="M185.98,375.452c4.751,6.658,9.337,12.923,13.62,18.748c7.875-6.03,18.228-7.23,27.85-6.03
			c9.541,1.194,21.805,6.147,26.196,12.738c5.649-4.664,11.707-9.699,18.032-15.085c-9.238-7.919-22.348-17.292-41.46-19.677
			C211.326,363.787,197.059,369.931,185.98,375.452z"/>
	</g>
	<g>
		<path d="M239.492,410.851c-0.183-0.674-0.443-1.313-0.718-1.947c-0.015-0.006-0.023-0.01-0.031-0.017
			c0.004-0.006,0.008-0.01,0.017-0.017c-2.047-4.713-6.49-8.302-12.073-8.996c-5.3-0.663-10.267,1.431-13.448,5.115
			c-0.476,0.553-0.901,1.142-1.292,1.76c-0.393,0.626-0.711,1.302-1.005,1.99c-0.522,1.215-0.942,2.492-1.117,3.869
			c-0.354,2.841,0.185,5.581,1.356,8.008c0.963,2.009,2.371,3.782,4.139,5.196c2.143,1.716,4.772,2.912,7.725,3.282
			c1.626,0.202,3.201,0.081,4.728-0.202c4.784-0.884,8.811-3.958,10.823-8.271c0.624-1.327,1.111-2.731,1.306-4.26
			C240.137,414.457,239.966,412.602,239.492,410.851z"/>
	</g>
	<path d="M472.072,220.641c-2.991-12.092-31.365-16.414-75.277-7.89c-10.202,1.982-19.377,4.792-27.456,7.94
		c-11.775-50.034-53.498-89.956-107.411-96.69c-5.3-0.662-10.571-0.986-15.784-0.986c-62.874,0-117.526,46.947-125.515,110.911
		c-0.166,1.331-0.229,2.727-0.304,4.114c-0.228,4.042-0.074,8.297,0.397,12.715c-8.826,0.404-18.596,1.602-29.013,4.083
		c-42.556,10.144-66.081,25.454-63.862,37.431c2.222,11.979,36.193,21.928,65.324,13.381c11.529-3.382,24.903-10.28,37.112-17.678
		c0.752,1.993,1.528,3.988,2.346,5.987c0.116,0.275,0.227,0.551,0.343,0.828c2.665,6.444,5.689,12.901,8.942,19.328
		c3.578,7.079,7.447,14.107,11.517,21.032c18.65-10.756,41.322-18.136,67.253-18.136c5.662,0,11.482,0.35,17.45,1.098
		c33.023,4.123,58.733,18.764,77.382,36.609c5.968-6.059,11.773-12.262,17.238-18.581c6.534-7.557,12.597-15.259,17.92-23.02
		c0.235-0.337,0.46-0.672,0.684-1.011c1.708-2.519,3.349-5.042,4.892-7.571c1.633-2.69,3.134-5.352,4.553-8.008
		c5.839-10.891,9.807-21.441,11.031-31.232c0.239-1.916,0.381-3.817,0.497-5.714c15.221,1.951,31.679,2.931,44.555,1.111
		C447.628,256.346,475.063,232.737,472.072,220.641z M335.951,228.529c-4.312,34.544-33.838,59.9-67.793,59.9
		c-2.819,0-5.662-0.175-8.526-0.532c-37.402-4.67-64.024-38.901-59.357-76.307c4.31-34.542,33.834-59.898,67.783-59.9
		c2.812,0,5.654,0.175,8.516,0.533C313.99,156.891,340.623,191.125,335.951,228.529z"/>
</g>
</svg>
